<svg width="78" height="78" viewBox="0 0 78 78" fill="none" xmlns="http://www.w3.org/2000/svg">
<rect x="2.5" y="8.5" width="73" height="67" rx="6.5" stroke="#c8c8c8" stroke-width="5"/>
<mask id="path-2-inside-1_4_40" fill="#c8c8c8">
<rect x="17" width="8" height="19" rx="3"/>
</mask>
<rect x="17" width="8" height="19" rx="3" stroke="#c8c8c8" stroke-width="8" mask="url(#path-2-inside-1_4_40)"/>
<mask id="path-3-inside-2_4_40" fill="#c8c8c8">
<rect x="53" width="8" height="19" rx="3"/>
</mask>
<rect x="53" width="8" height="19" rx="3" stroke="#c8c8c8" stroke-width="8" mask="url(#path-3-inside-2_4_40)"/>
<path d="M1 27H77.5" stroke="#c8c8c8" stroke-width="5"/>
<line x1="28.5" y1="39.5" x2="64.5" y2="39.5" stroke="#c8c8c8" stroke-width="5"/>
<path d="M13.5 37C12.1193 37 11 38.1193 11 39.5C11 40.8807 12.1193 42 13.5 42V37ZM13.5 42H23.5V37H13.5V42Z" fill="#c8c8c8"/>
<line x1="28.5" y1="50.5" x2="64.5" y2="50.5" stroke="#c8c8c8" stroke-width="5"/>
<path d="M13.5 48C12.1193 48 11 49.1193 11 50.5C11 51.8807 12.1193 53 13.5 53V48ZM13.5 53H23.5V48H13.5V53Z" fill="#c8c8c8"/>
<line x1="28.5" y1="61.5" x2="64.5" y2="61.5" stroke="#c8c8c8" stroke-width="5"/>
<path d="M13.5 59C12.1193 59 11 60.1193 11 61.5C11 62.8807 12.1193 64 13.5 64V59ZM13.5 64H23.5V59H13.5V64Z" fill="#c8c8c8"/>
</svg>
